<?xml version="1.0" standalone="no"?><!DOCTYPE svg PUBLIC "-//W3C//DTD SVG 1.1//EN" "http://www.w3.org/Graphics/SVG/1.1/DTD/svg11.dtd"><svg t="1728992876189" class="icon" viewBox="0 0 1024 1024" version="1.1" xmlns="http://www.w3.org/2000/svg" p-id="15732" xmlns:xlink="http://www.w3.org/1999/xlink" width="200" height="200"><path d="M250.752 208.448a32 32 0 0 0-41.216 41.216l207.36 550.4a32 32 0 0 0 60.8-2.624l55.936-198.528A96 96 0 0 1 600 532.48l198.528-55.936a32 32 0 0 0 2.56-60.8l-550.4-207.36z m-101.12 63.808c-29.12-77.248 46.4-152.832 123.712-123.712l550.336 207.36c86.72 32.704 81.408 157.12-7.808 182.272l-198.528 56a32 32 0 0 0-22.144 22.08l-55.936 198.528c-25.152 89.216-149.568 94.528-182.208 7.808l-207.424-550.4z" p-id="15733"></path></svg>