<?xml version="1.0" standalone="no"?><!DOCTYPE svg PUBLIC "-//W3C//DTD SVG 1.1//EN" "http://www.w3.org/Graphics/SVG/1.1/DTD/svg11.dtd"><svg t="1728694758618" class="icon" viewBox="0 0 1024 1024" version="1.1" xmlns="http://www.w3.org/2000/svg" p-id="21532" xmlns:xlink="http://www.w3.org/1999/xlink" width="200" height="200"><path d="M88.069103 201.668465c-5.965395 3.236997-8.122259 7.411243-8.122259 15.715508 0 8.374007 5.856532 14.769754 14.895628 16.26323 3.500651 0.58004 18.486432 1.061422 33.298711 1.071628 14.81398 0.010206 26.671628 0.593648 26.353541 1.294458-0.318086 0.702512-3.121329 6.157608-6.22905 12.124704-18.624213 35.758352-11.190857 79.353196 18.2602 107.084545 9.644651 9.081621 25.858551 18.331641 38.374485 21.891827l9.425222 2.682472v281.826233l-4.67774 0.998485c-18.297621 3.907189-37.212704 15.012997-48.692731 28.588651-10.552983 12.480213-16.139056 23.468651-20.398353 40.129914l-3.720079 14.546923-30.995562 0.464372-30.997262 0.462671V833.488372h56.767362c52.181475 0 57.367814 0.263654 64.212625 3.254007 18.010153 7.872213 46.345355 7.945355 66.070112 0.1718 8.569621-3.378179 12.136611-3.425807 255.130791-3.425807 240.046352 0 246.641116 0.08505 254.132306 3.296532 17.989741 7.712319 48.839017 7.712319 66.828757 0 7.098259-3.043083 12.073674-3.296532 64.534113-3.296532H959.362126v-86.75083h-30.517581c-22.553515 0-30.87309-0.554525-31.88008-2.126246-0.75014-1.168585-2.316757-6.718937-3.48194-12.332226-3.517661-16.96404-11.469821-30.869688-25.827934-45.173369-13.982193-13.927761-19.753674-17.311043-39.269209-23.012784l-12.757475-3.726884-0.435455-141.157209-0.433754-141.15891 5.397262-1.078432c2.96994-0.595349 9.289143-3.007362 14.043429-5.361542 47.88986-23.715296 66.194286-80.19689 40.912372-126.241169l-5.837821-10.631229 28.459376-0.010206c15.652571-0.005103 31.294937-0.796066 34.761568-1.758831 15.140571-4.204864 18.064585-23.267934 4.771295-31.119734-4.439601-2.622937-35.906339-2.827056-424.677634-2.76412-367.233276 0.059535-420.465967 0.382724-424.519442 2.583814m629.086405 40.298312c-9.748412 16.734405-12.095787 26.171535-11.959707 48.053157 0.137781 21.750645 2.151761 29.73002 11.507242 45.569701 12.289701 20.80489 33.118405 36.256744 56.825196 42.154099l8.930233 2.221502v283.054352l-4.677741 1.158379c-28.56994 7.067641-58.934432 41.298498-62.671522 70.652598-0.656585 5.145515-2.036093 9.918512-3.066897 10.605714-1.032505 0.687203-89.353355 1.260439-196.2678 1.275748-154.108598 0.020412-194.505568-0.415043-194.935921-2.100731-0.299375-1.168585-1.823468-7.484385-3.388385-14.033223-4.366458-18.284013-10.508757-29.260545-23.897302-42.705223-12.88505-12.939482-20.884837-17.831548-38.403402-23.478857l-11.056479-3.56699V380.329249l12.757475-4.339242c15.550512-5.2901 23.611535-10.112425 35.358618-21.148492C310.251588 337.887681 319.787375 315.181076 319.787375 289.169435c0-15.084439-4.186153-33.627003-9.505169-42.099668a886.146126 886.146126 0 0 0-5.148917-8.079734l-2.74711-4.252491h418.979296l-4.209967 7.229235m117.115323 450.304851c13.242259 6.720638 24.118432 17.928505 30.949634 31.888585 6.540332 13.368133 7.601754 34.531934 2.420518 48.270883-5.179535 13.73895-12.56186 24.035083-22.718511 31.691269-13.140199 9.903203-23.220306 13.201435-40.351043 13.201436-17.037183 0-27.205741-3.298233-40.085688-12.997316-36.409834-27.420066-34.564252-82.988226 3.594206-108.239522 12.648611-8.370605 21.388332-10.610817 39.269209-10.066498 13.78998 0.418445 16.816053 1.120957 26.921675 6.251163M256.360611 228.603748c13.099375 5.999415 27.702432 20.789581 34.137303 34.572757 3.968425 8.49988 4.592691 12.024346 4.608 25.99293 0.015309 14.558831-0.505196 17.260013-5.249276 27.273781-6.652598 14.034924-18.644625 25.989528-33.00614 32.897276-10.114126 4.86485-12.505728 5.317316-28.066445 5.317315-14.895628 0-18.219375-0.566432-26.736266-4.558671-47.078485-22.065329-52.729196-86.487176-10.17196-115.979056 18.103708-12.54485 44.251429-14.781661 64.484784-5.516332m0.971269 462.596252c13.262671 6.489302 25.938498 19.464505 32.46012 33.230671 4.81212 10.156651 5.330924 12.825515 5.330924 27.445581 0 14.851402-0.46097 17.132439-5.558858 27.486406-17.993143 36.551017-63.670007 49.694618-96.708465 27.828305-46.382777-30.699588-37.093635-99.596757 16.101635-119.413368 4.080691-1.520691 11.796412-2.148359 22.434445-1.82517 13.698126 0.413342 17.727787 1.229821 25.940199 5.247575M822.431894 228.535708c18.596997 8.515189 32.810525 26.037156 37.498471 46.227986 6.9979 30.133156-7.724226 60.247601-36.341794 74.335256-10.474738 5.157422-12.524439 5.558857-28.336903 5.558857-14.902432 0-18.258498-0.568133-26.698844-4.524651-27.59697-12.937781-43.742831-42.511309-38.838857-71.140784 2.422219-14.142086 6.86012-23.332571 16.382299-33.922977 14.475482-16.099934 29.898419-22.594339 51.671176-21.76085 11.362658 0.435455 16.644252 1.554711 24.664452 5.227163" fill="#000000" p-id="21533"></path><path d="M73.54089 768.850498c-0.216027 13.565449 0.112266 53.943708 0.731429 89.727575l1.124359 65.063123H961.063123v-88.451827h-56.765661c-56.502007 0-56.830299 0.020412-70.166113 4.407282-18.755189 6.169515-40.208159 6.174618-59.327362 0.018711l-13.607974-4.381767-244.572704-0.022113c-240.039548-0.022113-244.758113 0.040824-254.663017 3.378179-22.468465 7.569435-43.501289 7.589847-65.336983 0.062937C187.313754 835.442817 182.482924 835.189369 130.738605 835.189369H74.899987l-0.483083-45.501661c-0.265355-25.025063-0.658286-34.402658-0.876014-20.83721" fill="#000000" fill-opacity="0.23529411764705882" p-id="21534"></path><path d="M779.70796 226.036944c-10.224691 2.650153-21.985382 9.477953-29.838884 17.32295-23.907508 23.881993-25.863654 60.079203-4.691348 86.810365 15.809063 19.962897 45.486352 28.612465 70.193328 20.461289 46.02897-15.184797 59.720292-72.753329 25.452014-107.019907-12.225063-12.225063-24.49095-17.615522-41.752665-18.350352-7.732731-0.328292-16.446937 0.020412-19.362445 0.775655M213.373023 226.016532c-17.084811 4.446405-33.924678 18.44901-42.472186 35.319495-4.213369 8.314472-5.152319 12.444492-5.647309 24.831149-0.947455 23.715296 7.331296 41.551947 25.489435 54.918379 40.653821 29.927336 97.6219 4.135123 102.925608-46.598804 2.707987-25.90788-13.313701-53.071096-37.956039-64.352106-10.095415-4.621608-32.15394-6.766565-42.339509-4.118113M788.212944 688.709741c-16.753116 4.339243-34.742857 19.413475-42.754552 35.826392-4.11301 8.421635-4.614804 11.376266-4.64202 27.304399-0.030618 17.096718 0.214326 18.314631 5.720452 28.469581 7.086352 13.065355 19.296106 24.740997 32.148837 30.742113 8.385914 3.915694 11.956306 4.543362 25.921489 4.558671 14.842897 0.015309 17.130738-0.44396 27.394551-5.49592 28.471282-14.017914 42.63208-44.649462 34.79899-75.284412-3.206379-12.54315-7.569435-19.823415-18.044173-30.116146-11.294618-11.097302-23.487362-16.122047-40.783096-16.805848-7.952159-0.314684-16.84497 0.045927-19.760478 0.80117M212.17212 688.946179c-16.662963 4.204864-34.08287 18.908279-41.725449 35.219137-4.084093 8.714206-4.599495 11.818525-4.599495 27.675216 0 16.368691 0.415043 18.680346 4.972013 27.671814 6.135495 12.111096 20.080266 25.567681 32.278113 31.153754 11.354153 5.198246 28.449169 7.018312 39.592399 4.21677 40.580678-10.200877 60.87697-48.796492 46.248399-87.946631-4.601196-12.315216-20.386445-28.865914-32.9381-34.533634-9.644651-4.356252-32.973821-6.196731-43.82788-3.456426" fill="#FFFFFF" p-id="21535"></path><path d="M73.537488 880.69103L73.142857 925.342193l444.385382-0.421847 444.385382-0.421848-443.505967-0.432053-443.505966-0.432053-0.484784-43.797262-0.483083-43.797263-0.396333 44.651163" fill="#000000" fill-opacity="0.03529411764705882" p-id="21536"></path><path d="M512 236.438538c113.669103 0.479681 206.288372 1.148173 205.820598 1.486671-0.467774 0.340199-0.275561 0.527309 0.425249 0.415043 0.702512-0.110565 1.275748-0.966166 1.275748-1.901714 0-1.127761-69.88885-1.561515-207.096346-1.285953l-207.096345 0.415043L512 236.438538" fill="#000000" fill-opacity="0.23529411764705882" p-id="21537"></path><path d="M322.175575 739.933555l0.163295 4.252492 194.338871-0.003402 194.33887-0.003402-193.801355-0.421848L323.415601 743.335548l-0.702511-3.827242c-0.610658-3.330551-0.680399-3.274419-0.537515 0.425249" fill="#000000" fill-opacity="0.03529411764705882" p-id="21538"></path><path d="M245.72598 381.448505c-0.445661 1.170286-0.612359 64.510299-0.370817 140.757475 0.347003 109.646246 0.882817 138.595508 2.565103 138.46113 1.170286-0.093555 1.360797-0.284066 0.425249-0.42525-2.733502-0.40994-2.309953-278.689595 0.425249-279.793541 1.665276-0.671894 1.653369-0.886219-0.052731-0.991681-1.199203-0.073143-2.544691 0.823282-2.992053 1.991867M781.177621 521.355482c-0.275561 91.928664-1.00699 140.420678-2.121143 140.587375-0.935548 0.141183-0.743336 0.331694 0.42525 0.425249 1.685688 0.134379 2.124545-29.022405 2.121142-140.587375l-0.005103-140.757475-0.420146 140.332226" fill="#000000" fill-opacity="0.23529411764705882" p-id="21539"></path><path d="M815.559867 379.747508c-0.445661 1.170286-0.608957 64.893023-0.360611 141.607974l0.449063 139.481727 0.415043-140.616292c0.326591-110.586897 0.869209-140.798299 2.541289-141.473595 1.665276-0.671894 1.653369-0.886219-0.052731-0.991681-1.199203-0.073143-2.544691 0.823282-2.992053 1.991867M212.643296 520.241329l0.87091 140.59588 0.404837-139.806618c0.224532-76.893555-0.166698-140.162126-0.869209-140.59588-0.700811-0.433754-0.884518 62.479309-0.406538 139.806618" fill="#000000" fill-opacity="0.5019607843137255" p-id="21540"></path><path d="M928.742485 746.29188l30.619641 0.522206 0.40994 42.487495 0.40824 42.485794 0.01701-42.950166 0.015309-42.950166-31.044891-0.059535-31.04489-0.059535 30.619641 0.523907" fill="#000000" fill-opacity="0.9647058823529412" p-id="21541"></path><path d="M902.378738 833.522392l-57.833888 0.884518 57.408638 0.39123c31.575601 0.216027 57.60085-0.182007 57.833887-0.884519 0.234738-0.700811-25.6-0.877714-57.408637-0.391229" fill="#000000" fill-opacity="0.6745098039215687" p-id="21542"></path><path d="M870.910299 236.438538c0 0.935548 0.574937 1.79115 1.275748 1.901714 0.702512 0.112266 0.893023-0.054432 0.425249-0.365714-0.467774-0.312983 13.310299-1.003588 30.61794-1.536l31.468438-0.966166-31.893687-0.367415c-20.372837-0.234738-31.893688 0.246645-31.893688 1.333581" fill="#000000" fill-opacity="0.23529411764705882" p-id="21543"></path><path d="M103.760797 743.393382l-31.468438 0.908332 32.03487 0.367416c17.620625 0.202419 31.781422-0.205821 31.468439-0.908333-0.311282-0.700811-14.727229-0.867508-32.034871-0.367415" fill="#000000" fill-opacity="0.03529411764705882" p-id="21544"></path><path d="M122.049914 236.363694c17.074605 0.508598 31.043189 0.352106 31.043189-0.350405-0.001701-0.700811-13.971987-1.117555-31.046591-0.925342l-31.04319 0.348704 31.046592 0.927043" fill="#000000" fill-opacity="0.23529411764705882" p-id="21545"></path><path d="M164.860598 683.098153c-4.286512 4.041568-9.261927 9.595322-11.056478 12.340731-1.796252 2.745409 1.709502-0.561329 7.790564-7.348306 7.792266-8.695495 8.756731-10.170259 3.265914-4.992425M750.767203 673.640611c-3.862963 2.599123-7.521807 5.528239-8.129063 6.509715-0.607256 0.983176 2.745409-1.047814 7.452066-4.511044 10.177063-7.491189 10.569993-8.649568 0.676997-1.998671M728.877076 354.657807l9.355482 9.355482-9.355482-9.355482-9.355481-9.355481 9.355481 9.355481M163.295681 355.508306l8.504983 8.504983-8.504983-8.504983-8.504983-8.504984 8.504983 8.504984" fill="#000000" fill-opacity="0.03529411764705882" p-id="21546"></path><path d="M869.209302 685.501661l8.504984 8.504984-8.504984-8.504984-8.504983-8.504983 8.504983 8.504983" fill="#000000" fill-opacity="0.23529411764705882" p-id="21547"></path></svg>