<?xml version="1.0" standalone="no"?><!DOCTYPE svg PUBLIC "-//W3C//DTD SVG 1.1//EN" "http://www.w3.org/Graphics/SVG/1.1/DTD/svg11.dtd"><svg t="1728694712384" class="icon" viewBox="0 0 1024 1024" version="1.1" xmlns="http://www.w3.org/2000/svg" p-id="21370" xmlns:xlink="http://www.w3.org/1999/xlink" width="200" height="200"><path d="M494.990033 211.823415c-29.175495 8.086538-51.912718 30.179083-60.227189 58.519389-1.619349 5.521435-2.69608 15.44505-2.673967 24.664452 0.052731 22.85289 6.991096 40.488824 22.725316 57.759043 5.165927 5.671123 5.754472 7.125475 4.13002 10.20598-1.04101 1.976558-10.467934 18.518751-20.947774 36.76194-10.481542 18.243189-32.667641 56.898339-49.306791 85.900332-16.637449 29.001993-35.118777 60.968824-41.070565 71.037024-5.951787 10.0699-10.821741 18.608904-10.821741 18.97802 0 0.369116-4.466817 8.205608-9.927016 17.414804-5.460199 9.209196-11.850844 20.187429-14.201622 24.397395-13.084066 23.434631-32.808824 57.255548-34.40776 58.997369-1.422033 1.549608-4.000744 1.45095-11.150034-0.425249-33.761382-8.855389-70.917953 6.479096-91.095176 37.595428C170.319096 722.413289 163.295681 742.204385 163.295681 749.467641V753.541528H103.760797v81.555987l54.857143 0.537515c51.385409 0.503495 55.717847 0.78586 68.465116 4.47192 16.297249 4.711761 31.703176 4.298419 47.998725-1.291056l10.578498-3.626525h459.483429l10.578498 3.78982c14.742538 5.281595 40.083987 5.252678 55.173528-0.062937 10.013767-3.527867 13.39705-3.726884 63.362126-3.726883H927.043189v-81.647841h-58.946339l-2.000372-10.848957c-3.390086-18.406485-9.728-30.05491-24.438219-44.923322-22.648771-22.892013-57.338897-29.959654-89.542166-18.243189-6.865223 2.497063-12.662219 4.289914-12.883349 3.982033-0.219429-0.306179-2.541289-4.767894-5.159123-9.913409-4.696452-9.23301-14.041728-26.942086-26.481116-50.179402a4993.377807 4993.377807 0 0 1-15.082738-28.491694c-20.713037-39.444412-26.84513-51.035003-38.464637-72.717608a6311.252199 6311.252199 0 0 1-21.893529-41.249169 11584.88792 11584.88792 0 0 0-45.60202-86.155482c-9.193887-17.214086-16.715694-32.067189-16.715694-33.00614 0-0.937249 3.748997-5.669422 8.331482-10.515561 35.775362-37.826764 27.440478-100.690498-17.098419-128.949156-5.00093-3.17406-12.920771-7.108465-17.598511-8.744824-11.842339-4.141927-36.637767-5.043455-48.478406-1.762233m6.683216 165.910113c9.556199 1.879601 18.170047 1.609143 35.841701-1.124359l5.953489-0.920239 8.294059 15.849887A10686.404465 10686.404465 0 0 0 590.23394 464.372093a10478.343654 10478.343654 0 0 1 22.965156 43.375415c5.404066 10.29103 16.324465 30.95814 24.266419 45.926911a27729.222591 27729.222591 0 0 1 37.801249 71.44186c4.93289 9.355482 16.144159 30.488664 24.911096 46.961116 8.768638 16.474153 15.941741 30.898605 15.941741 32.056984 0 1.156678-1.559814 4.293316-3.46493 6.970684-5.555455 7.800771-10.639734 20.386445-12.677528 31.379987l-1.891508 10.20598-182.158034 0.432053-182.159734 0.433754-2.672266-11.833834c-3.315243-14.676199-10.49515-29.114259-19.634604-39.471628-3.84085-4.354551-6.982591-8.722711-6.982592-9.705887 0-0.984877 2.187482-5.501023 4.861449-10.03588a1054.665568 1054.665568 0 0 0 9.110538-15.809063c2.33887-4.160638 15.924731-27.848718 30.192691-52.640744 21.517608-37.389608 74.78602-130.207894 123.000771-214.325582 14.652385-25.56598 14.86501-25.870458 17.346764-24.9179 1.240027 0.476279 6.94687 1.787748 12.682631 2.917209m-232.706551 322.62804c16.870485 5.720452 30.451243 19.411774 37.321568 37.624346 4.98392 13.211641 4.085794 32.786711-2.124545 46.341953-9.443934 20.605874-29.241834 33.86004-52.598219 35.212332-26.891056 1.556412-49.473488-12.201249-60.718778-36.989873-6.191628-13.647096-6.12699-34.302299 0.149688-48.150113 13.851216-30.556704 46.367468-44.753223 77.970286-34.038645M541.767442 238.069794c44.011588 20.201037 48.560053 79.674684 8.215814 107.431548-10.951017 7.533714-22.832478 10.53087-38.219695 9.641249-16.69188-0.964465-28.495096-6.569249-40.442897-19.202551-13.111282-13.863123-16.300651-22.016-16.302352-41.667615-0.001701-14.009409 0.610658-17.465834 4.597794-25.974219 14.475482-30.8901 51.237422-44.418126 82.151336-30.228412m267.056478 464.375495c37.064718 17.025276 47.702751 65.797953 20.988598 96.225382-13.351123 15.205209-30.100837 22.053422-50.992478 20.844013-16.69188-0.964465-28.495096-6.569249-40.442897-19.202551-13.012625-13.759362-16.215601-21.973475-16.244518-41.667615-0.020412-13.990698 0.586844-17.469236 4.529754-25.916385 14.480585-31.014272 51.145568-44.528691 82.161541-30.282844" fill="#000000" p-id="21371"></path><path d="M871.760797 836.890365c-37.156571 0.56303-57.282764 1.50198-59.534883 2.777728-1.871096 1.05802-9.059508 2.86788-15.975761 4.021156-13.56885 2.260625-32.301927 0.384425-44.409621-4.448106-5.01794-2.003774-42.470485-2.298047-238.139535-1.872797-219.812997 0.47798-232.684439 0.670193-241.541529 3.621421-13.650498 4.548465-36.835083 4.356252-50.550219-0.416744-9.979748-3.475136-13.609674-3.682658-64.212624-3.682658H103.760797v81.647841H928.803721l-0.455867-41.249169-0.454166-41.24917-56.132891 0.850498" fill="#000000" fill-opacity="0.23529411764705882" p-id="21372"></path><path d="M490.737542 239.495229c-19.086884 9.258525-32.386977 28.020518-34.286991 48.369542-2.452837 26.256585 10.452625 49.180917 34.286991 60.907588 7.225834 3.555083 10.935708 4.184452 24.664451 4.184452 13.958379 0 17.479442-0.619163 25.848346-4.541661 12.413874-5.81911 24.246007-17.683561 29.913727-29.995376 6.387243-13.871628 6.394047-34.407761 0.01701-48.258977-5.660917-12.294804-15.761435-23.254326-27.22275-29.536106-7.907934-4.33414-11.049674-4.999229-26.004838-5.504425-15.914525-0.537515-17.666551-0.25685-27.215946 4.374963M227.732837 701.458711c-15.142272 5.41087-27.959282 17.385887-34.950379 32.655734-3.34586 7.309183-4.135123 11.762392-4.102804 23.167575 0.045927 16.734405 1.585329 22.694698 8.73802 33.841329 14.829289 23.10804 46.039176 33.291907 72.120559 23.533289 12.352638-4.621608 26.02695-17.224292 32.456717-29.91713 4.528053-8.935336 5.03495-11.561674 5.03495-26.09499 0-13.854618-0.629369-17.49305-4.412385-25.51495-5.737462-12.160425-16.853475-23.114844-29.607548-29.170392-8.797555-4.177648-12.201249-4.835934-24.664452-4.772997-7.952159 0.039123-17.227694 1.063123-20.612678 2.272532M757.79402 703.867322c-11.947801 5.795296-24.943415 18.928691-30.270937 30.594127-2.924013 6.39915-3.672452 11.296319-3.694565 24.183069-0.028917 15.193302 0.318086 16.802445 5.786791 26.911469 11.044571 20.41196 28.085156 31.366379 50.291668 32.327442 15.967256 0.692306 28.151495-3.049887 40.408877-12.408771 13.245661-10.114126 23.404013-30.798246 23.359787-47.56497-0.039123-15.041914-8.460757-33.359947-20.223149-43.984372-12.175734-11.002047-19.40497-13.708332-38.442525-14.393834-15.951947-0.576638-17.644439-0.306179-27.215947 4.33584" fill="#FFFFFF" p-id="21373"></path><path d="M929.152425 834.760718l-0.408239 83.770684-412.916943 0.432053-412.916944 0.432053 413.782751 0.421847 413.784452 0.421848-0.457568-84.624585-0.457569-84.624585-0.40994 83.770685" fill="#000000" fill-opacity="0.03529411764705882" p-id="21374"></path><path d="M873.461794 835.22509l-54.431894 0.886219 54.006645 0.389528c29.704505 0.214326 54.198857-0.183708 54.431894-0.886219 0.234738-0.700811-24.069103-0.876013-54.006645-0.389528M868.202312 750.522259c0.336797 1.660173 7.486086 2.163668 30.490366 2.146658l30.051508-0.022113-29.626259-0.403136c-18.129223-0.246645-29.961355-1.080133-30.490366-2.146658-0.474578-0.959362-0.666791-0.76715-0.425249 0.425249M161.849834 750.139535c-0.156492 1.039309-11.510645 1.857488-29.172093 2.102432l-28.916944 0.403136 29.342193 0.022113c22.441249 0.018711 29.301369-0.476279 29.172093-2.102432-0.093555-1.168585-0.284066-1.360797-0.425249-0.425249" fill="#000000" fill-opacity="0.5137254901960784" p-id="21375"></path><path d="M451.189369 235.972465c-5.846326 6.140598-10.631229 11.888266-10.631229 12.771083 0 0.884518 3.007362-2.095628 6.681514-6.623681 3.675854-4.528053 8.459056-10.275721 10.63123-12.772784 2.172173-2.495362-0.833488 0.484784-6.681515 6.625382M445.225674 346.152824c1.927229 2.806645 5.441488 6.909449 7.809276 9.119043 3.073701 2.86788 3.971827 4.992425 3.143442 7.431655-1.093741 3.213183-1.047814 3.228492 0.775655 0.236438 1.656771-2.716492 0.690605-4.53996-6.647496-12.534644-4.721967-5.145515-7.008106-7.059136-5.080877-4.252492" fill="#000000" fill-opacity="0.03529411764705882" p-id="21376"></path><path d="M843.694352 697.408638l8.504984 8.504983-8.504984-8.504983-8.504983-8.504984 8.504983 8.504984" fill="#000000" fill-opacity="0.23529411764705882" p-id="21377"></path></svg>