<?xml version="1.0" standalone="no"?><!DOCTYPE svg PUBLIC "-//W3C//DTD SVG 1.1//EN" "http://www.w3.org/Graphics/SVG/1.1/DTD/svg11.dtd"><svg t="1728662576513" class="icon" viewBox="0 0 1024 1024" version="1.1" xmlns="http://www.w3.org/2000/svg" p-id="2064" xmlns:xlink="http://www.w3.org/1999/xlink" width="200" height="200"><path d="M531.569234 0.094938a104.43224 104.43224 0 0 1 103.315318 70.738416l4.421151 13.216915 13.403068-4.653843 1.163461-0.372308c10.98307-3.629998 22.524601-5.491535 34.159208-5.491535h1.908076c54.449965-0.186154 99.313013 42.070742 101.453781 95.496862l0.046538 1.489229v63.711113l17.824219-5.165766 1.303076-0.372307c9.866147-2.745767 20.104602-4.14192 30.389596-4.141921H841.375572l1.721922-0.046538c56.07881-0.977307 103.268779 41.093435 107.68993 96.008784l0.093077 1.535768 1.256538 50.540737 0.372307 17.963834 0.186154 8.60961 0.186154 8.563072 0.139615 8.516533 0.139615 8.469994 0.139616 8.423456 0.046538 4.188459 0.139615 8.376918 0.046539 4.14192 0.093077 8.237303 0.046538 4.14192 0.139615 12.239607 0.046539 8.097687 0.046538 8.004611 0.046539 7.958071v7.911534l0.046538 6.608457v16.753835l-0.046538 8.656149-0.046539 8.423456-0.093077 8.237302-0.093076 8.051149-0.139616 9.354225-0.093077 6.096534-0.093076 4.514228-0.093077 4.421151-0.139616 5.770765-0.186153 5.584612-0.139616 5.538074-0.139615 4.002305-0.186154 5.258842-0.232692 5.119228-0.139615 3.723074-0.232692 4.886536-0.186154 3.53692-0.186154 3.490383-0.27923 4.467689-0.139616 2.187307-0.232692 3.25769C935.057435 886.558981 799.723676 1023.847354 578.293819 1023.847354a514.994283 514.994283 0 0 1-92.844171-7.818457l-2.047691-0.372307a308.642878 308.642878 0 0 1-171.354505-96.334553l-1.256537-1.396153-1.535768-1.861537c-26.99229-32.111518-50.354583-67.015341-69.714571-104.106472l-0.139615-0.232692-1.116922-2.047691-2.09423-3.629997-2.047691-3.58346-2.001152-3.53692-2.001153-3.443844-2.001153-3.397306-1.954614-3.350767-2.885382-4.933074-1.954615-3.25769-1.861537-3.211152-0.977307-1.582306A1172.582319 1172.582319 0 0 0 127.010649 642.6976l-1.209999-1.48923-2.187307-2.65269c-18.801526-23.501908-32.297671-44.304587-41.51228-65.991496C70.233762 544.50151 66.603765 517.043835 72.653761 489.120776a108.248392 108.248392 0 0 1 64.921112-77.346873 111.366467 111.366467 0 0 1 101.639934 8.656148l1.768461 1.070384c5.444996 3.443844 10.703839 7.166918 15.823066 11.169224l22.524601 17.777681V179.872899l0.046539-1.48923c2.187306-53.984581 47.934584-96.567245 103.129164-95.496861h1.489229c10.98307 0.139615 21.873063 1.861537 32.251133 5.212304l14.240761 4.514228 3.53692-14.287298 0.325769-1.349615A104.106471 104.106471 0 0 1 531.569234 0.094938z m4.793458 51.704198c-24.758446 0-45.747278 17.777681-49.470353 41.791511l-0.139615 1.023846v430.852798a26.619983 26.619983 0 0 1-26.852675 26.387291 26.619983 26.619983 0 0 1-26.852675-26.387291V177.77867l-0.093077-0.837692a49.703045 49.703045 0 0 0-49.656506-43.141126c-25.22383 0-46.538431 18.522296-49.609968 43.141126l-0.093077 0.837692v353.040541a26.619983 26.619983 0 0 1-26.666521 26.340752 26.759598 26.759598 0 0 1-25.130753-17.544989l-0.651538-1.861537-4.560766-6.189611-0.791154-1.163461c-4.653843-6.887688-9.773071-13.821914-15.497297-21.268063l-1.070384-1.396153a188.201417 188.201417 0 0 0-46.212663-43.513434l-1.721922-1.16346-0.558461-0.279231-0.744615-0.372307c-9.307686-4.839997-19.825372-7.027303-30.296519-6.375765h-0.372307 0.465384a58.498808 58.498808 0 0 0-21.407678 4.234997l-0.232692 0.093077-0.651538 0.27923c-16.521143 7.213457-28.434982 21.779986-32.111518 39.138821l-0.093077 0.558461v-0.139615c-4.095382 18.848065-0.465384 38.440744 9.633455 59.103808 4.74692 9.773071 10.657301 19.453064 18.149989 29.97075l1.489229 2.047691 1.48923 2.047691 0.791153 1.070384 1.582307 2.094229 1.582307 2.140768 0.837692 1.070384 1.675383 2.140768 0.88423 1.116922 1.721922 2.187306 1.814999 2.280384 1.814999 2.280383 2.326921 2.931921a1210.278449 1210.278449 0 0 1 93.495709 136.031835l21.547294 36.765361-0.186154-0.279231c17.684604 33.740363 38.766513 65.665727 62.91996 95.310708l1.861537 2.233845 0.186154 0.232692a259.405217 259.405217 0 0 0 143.477984 81.209563h0.279231a458.40355 458.40355 0 0 0 81.488793 6.980765l2.419998-0.046539c113.274542 0 195.321797-38.906129 248.561763-110.06339 42.582665-56.823425 64.874573-131.471069 71.2038-217.79986l0.232692-3.676536 0.279231-4.14192 0.232692-4.281536 0.279231-4.421151 0.139615-3.443844 0.232692-4.653843 0.186154-4.839997 0.186154-3.723074 0.139615-5.026151 0.232692-6.51538 0.139615-5.35192 0.139616-5.491535 0.139615-4.188459 0.093077-5.724227 0.186153-8.842302 0.093077-7.539226 0.093077-6.189611 0.093077-9.49384 0.046538-9.773071v-8.376917l0.046539-10.238455v-24.293061l-0.093077-8.144226v-8.144225l-0.093077-4.141921-0.046538-8.237302-0.093077-8.330379-0.093077-8.376918-0.093077-8.376918-0.139615-8.516533-0.139615-8.469994-0.139616-8.563072-0.139615-8.563071-0.186154-8.563071-0.139615-8.60961-0.186154-8.00461-1.070384-43.93228-0.372307-13.403068v-0.698077c-0.511923-24.246523-27.550751-44.258048-55.380734-44.676894h-0.465384 0.465384a47.283046 47.283046 0 0 0-50.261506 43.001511l-0.093076 0.558461v204.629483a26.619983 26.619983 0 0 1-26.806137 26.387291 26.619983 26.619983 0 0 1-26.852675-26.387291V169.494829l-0.093077-0.837692a49.703045 49.703045 0 0 0-49.656506-43.094587c-25.270368 0-46.538431 18.475757-49.656507 43.094587l-0.093076 0.837692v356.484385a26.619983 26.619983 0 0 1-26.852675 26.387291 26.619983 26.619983 0 0 1-26.806137-26.340753v-431.411259l-0.186154-1.023846a49.749583 49.749583 0 0 0-49.423814-41.791511z" p-id="2065"></path></svg>