<?xml version="1.0" standalone="no"?><!DOCTYPE svg PUBLIC "-//W3C//DTD SVG 1.1//EN" "http://www.w3.org/Graphics/SVG/1.1/DTD/svg11.dtd"><svg t="1728694430822" class="icon" viewBox="0 0 1024 1024" version="1.1" xmlns="http://www.w3.org/2000/svg" p-id="2322" xmlns:xlink="http://www.w3.org/1999/xlink" width="200" height="200"><path d="M884.24 273.34c-38.07 0.06-68.88 30.98-68.82 69.05a68.944 68.944 0 0 0 10.91 37.11l-148.9 225.56a99.179 99.179 0 0 0-23.99-3.31 91.62 91.62 0 0 0-22.89 3.03l-180.06-316a95.645 95.645 0 0 0 27.57-68.38c0.24-53.3-42.77-96.71-96.07-96.95-53.3-0.24-96.71 42.77-96.95 96.07a96.515 96.515 0 0 0 36.67 76.17L136.14 762.78c-38.02 2-67.22 34.45-65.22 72.47 2 38.02 34.45 67.22 72.47 65.22 38.02-2 67.22-34.45 65.22-72.47-0.92-17.4-8.38-33.8-20.9-45.91l186.4-466.01c2.85 0.15 5.7 0.15 8.55 0 6.57-0.08 13.12-0.73 19.58-1.93l181.44 318.49c-35.96 39.14-33.38 100.02 5.76 135.98 39.14 35.96 100.02 33.38 135.98-5.76 33.82-36.82 33.82-93.4 0-130.22l146.7-223.35c4.04 0.27 8.09 0.27 12.13 0 38.07 0 68.94-30.86 68.94-68.94s-30.86-68.94-68.94-68.94v1.93z" fill="#BFBFBF" p-id="2323"></path></svg>