<?xml version="1.0" standalone="no"?><!DOCTYPE svg PUBLIC "-//W3C//DTD SVG 1.1//EN" "http://www.w3.org/Graphics/SVG/1.1/DTD/svg11.dtd"><svg t="1728694639803" class="icon" viewBox="0 0 1024 1024" version="1.1" xmlns="http://www.w3.org/2000/svg" p-id="17663" xmlns:xlink="http://www.w3.org/1999/xlink" width="200" height="200"><path d="M259.328 470.784c-2.304 13.568-3.328 27.392-3.328 41.216 0 14.08 1.024 27.904 3.328 41.216H41.216C18.432 553.216 0 534.784 0 512c0-22.784 18.432-41.216 41.216-41.216h218.112z m505.344 0h218.112c22.784 0 41.216 18.432 41.216 41.216 0 22.784-18.432 41.216-41.216 41.216h-218.112c2.304-13.568 3.328-27.136 3.328-41.216 0-14.08-1.024-27.904-3.328-41.216z m0 0" fill="#EB3333" p-id="17664"></path><path d="M512 726.784c-118.528 0-214.784-96-214.784-214.784 0-118.528 96-214.784 214.784-214.784 118.528 0 214.784 96 214.784 214.784 0 118.528-96.256 214.784-214.784 214.784z m0-82.688c72.96 0 132.096-59.136 132.096-132.096s-59.136-132.096-132.096-132.096-132.096 59.136-132.096 132.096 59.136 132.096 132.096 132.096z m0 0" fill="#333333" p-id="17665"></path></svg>