<?xml version="1.0" standalone="no"?><!DOCTYPE svg PUBLIC "-//W3C//DTD SVG 1.1//EN" "http://www.w3.org/Graphics/SVG/1.1/DTD/svg11.dtd"><svg t="1729064481676" class="icon" viewBox="0 0 1024 1024" version="1.1" xmlns="http://www.w3.org/2000/svg" p-id="7399" xmlns:xlink="http://www.w3.org/1999/xlink" width="200" height="200"><path d="M390.208 300.5696h95.573333a32 32 0 0 1 0 64h-123.690666l-46.203734 105.169067H412.330667a32 32 0 0 1 0 64H287.773867L241.088 640h78.062933a32 32 0 1 1 0 64H212.970667l-61.8368 140.753067A21.333333 21.333333 0 0 0 170.666667 874.666667h245.969066a34.133333 34.133333 0 0 0 31.249067-20.4032L744.4352 179.242667A21.333333 21.333333 0 0 0 724.9024 149.333333h-254.3232a21.333333 21.333333 0 0 0-19.5328 12.753067L390.208 300.5696zM508.821333 874.666667H906.666667a32 32 0 1 1 0 64H170.666667c-47.1296 0-85.333333-38.203733-85.333334-85.333334a85.333333 85.333333 0 0 1 7.210667-34.321066l299.908267-682.666667A85.333333 85.333333 0 0 1 470.574933 85.333333H724.906667c47.1296 0 85.333333 38.203733 85.333333 85.333334a85.333333 85.333333 0 0 1-7.2064 34.321066L508.8256 874.666667z" fill="#333333" p-id="7400"></path></svg>